<svg width="32" height="32" viewBox="0 0 32 32" fill="none" xmlns="http://www.w3.org/2000/svg">
<path fill-rule="evenodd" clip-rule="evenodd" d="M16.7674 1.67994C16.316 1.32886 15.684 1.32886 15.2326 1.67994L3.23257 11.0133C2.92809 11.2501 2.75 11.6142 2.75 12V26.6666C2.75 27.7054 3.16265 28.7016 3.89716 29.4361C4.63168 30.1707 5.6279 30.5833 6.66667 30.5833H11.9899C11.9933 30.5833 11.9966 30.5833 12 30.5833C12.0034 30.5833 12.0067 30.5833 12.0101 30.5833H19.9899C19.9933 30.5833 19.9966 30.5833 20 30.5833C20.0034 30.5833 20.0067 30.5833 20.0101 30.5833H25.3333C26.3721 30.5833 27.3683 30.1706 28.1028 29.4361C28.8374 28.7016 29.25 27.7054 29.25 26.6666V12C29.25 11.6142 29.0719 11.2501 28.7674 11.0133L16.7674 1.67994ZM21.25 28.0833H25.3333C25.7091 28.0833 26.0694 27.934 26.3351 27.6684C26.6007 27.4027 26.75 27.0424 26.75 26.6666V12.6113L16 4.2502L5.25 12.6113V26.6666C5.25 27.0424 5.39926 27.4027 5.66493 27.6684C5.93061 27.934 6.29094 28.0833 6.66667 28.0833H10.75V16C10.75 15.3096 11.3096 14.75 12 14.75H20C20.6904 14.75 21.25 15.3096 21.25 16V28.0833ZM13.25 28.0833H18.75V17.25H13.25V28.0833Z" fill="#EF233C"/>
</svg>
